#!OML:ASF I:\Actors\actors\Patient Classification 2\Patient 1\Session 1\actor1.ASF
:FULLY-SPECIFIED
:DEGREES
198
root -0.337255 18.2621 3.63597 25.8314 5.03937 -15.2424
lowerback 41.7138 -0.848746 -5.91754
upperback 12.7993 -3.38151 -0.954168
thorax -5.3031 -1.7391 3.31403
lowerneck 9.80959 -17.1685 -16.9087
upperneck 24.8737 -25.6843 12.2793
head 10.343 -12.997 4.6933
rclavicle 3.81667e-014 6.04305e-014
rhumerus 47.7737 29.257 -52.9442
rradius 42.7447
rwrist 31.5556
rhand 3.3384 -26.1715
rfingers 7.12502
rthumb 28.7839 -53.9723
lclavicle 3.81667e-014 6.04305e-014
lhumerus 18.2902 -17.8216 57.831
lradius 61.1463
lwrist 11.388
lhand -7.63432 -28.9301
lfingers 7.12502
lthumb 18.2607 0.232747
rfemur -38.2338 -4.84684 33.0474
rtibia 20.1002
rfoot -12.8899 -8.13312
rtoes -8.79844
lfemur -54.4027 8.43847 0.797881
ltibia 45.4041
lfoot -16.1764 4.11697
ltoes -55.9149
199
root -0.322581 18.2645 3.65173 25.8625 5.33785 -15.2344
lowerback 41.3499 -0.69752 -6.09305
upperback 12.7334 -3.26192 -1.157
thorax -5.27771 -1.67471 3.13914
lowerneck 9.59158 -17.0893 -16.9806
upperneck 24.6963 -25.5407 12.2856
head 10.2973 -12.9245 4.70826
rclavicle -6.36111e-015 2.54444e-014
rhumerus 48.6518 29.8572 -51.9472
rradius 43.5609
rwrist 30.3089
rhand 3.0118 -26.4384
rfingers 7.12502
rthumb 28.4718 -54.2917
lclavicle -6.36111e-015 2.54444e-014
lhumerus 17.1634 -17.6228 58.3879
lradius 60.3363
lwrist 10.8328
lhand -7.67395 -28.5563
lfingers 7.12502
lthumb 18.2225 0.610135
rfemur -38.2519 -4.94206 33.0145
rtibia 20.0893
rfoot -13.0418 -8.32808
rtoes -8.83712
lfemur -54.5291 8.14828 0.830008
ltibia 45.4071
lfoot -16.2016 4.22127
ltoes -56.1108
200
root -0.310945 18.269 3.66986 25.8101 5.59727 -15.1873
lowerback 41.0732 -0.514033 -6.35429
upperback 12.6394 -3.14413 -1.38284
thorax -5.30288 -1.60965 2.98673
lowerneck 9.57934 -16.9434 -17.1623
upperneck 24.4114 -25.3738 12.5016
head 10.2195 -12.854 4.83237
rclavicle -9.54166e-015 -5.48646e-014
rhumerus 49.53 30.4724 -50.963
rradius 44.3515
rwrist 29.1613
rhand 2.34657 -26.6081
rfingers 7.12502
rthumb 27.836 -54.5661
lclavicle -9.54166e-015 -5.48646e-014
lhumerus 15.8823 -17.1737 59.0091
lradius 59.447
lwrist 10.2072
lhand -7.41856 -28.4088
lfingers 7.12502
lthumb 18.4682 0.734525
rfemur -38.1488 -5.14495 32.9848
rtibia 20.0377
rfoot -13.1194 -8.39964
rtoes -8.59495
lfemur -54.5123 7.85118 0.837521
ltibia 45.382
lfoot -16.2297 4.27354
ltoes -56.1854
201
root -0.302418 18.2736 3.68919 25.7486 5.82007 -15.1629
lowerback 40.7819 -0.277425 -6.66302
upperback 12.5452 -2.97485 -1.56253
thorax -5.32111 -1.52431 2.88843
lowerneck 9.5289 -16.8186 -17.3968
upperneck 24.2409 -25.2303 12.6662
head 10.1958 -12.796 4.93592
rclavicle 3.49861e-014 1.51076e-014
rhumerus 50.3879 31.0181 -49.9317
rradius 45.224
rwrist 28.0594
rhand 1.64261 -26.7582
rfingers 7.12502
rthumb 27.1627 -54.8232
lclavicle 3.49861e-014 1.51076e-014
lhumerus 14.5338 -16.4902 59.8248
lradius 58.5338
lwrist 9.37394
lhand -7.23938 -28.1586
lfingers 7.12502
lthumb 18.6406 0.968306
rfemur -37.9806 -5.30503 32.9717
rtibia 19.9089
rfoot -13.1102 -8.47238
rtoes -8.67979
lfemur -54.4425 7.63298 0.857829
ltibia 45.3351
lfoot -16.2424 4.26884
ltoes -56.1647
202
root -0.294366 18.279 3.70976 25.6789 6.04697 -15.2068
lowerback 40.467 -0.047162 -6.89783
upperback 12.4512 -2.77971 -1.70949
thorax -5.33632 -1.4274 2.77824
lowerneck 9.29737 -16.7658 -17.6096
upperneck 24.2802 -25.1364 12.6373
head 10.2598 -12.7544 4.94258
rclavicle 6.36111e-014 2.8625e-014
rhumerus 51.2338 31.4766 -48.8285
rradius 46.1851
rwrist 26.829
rhand 1.33236 -26.7946
rfingers 7.12502
rthumb 26.8659 -54.9057
lclavicle 6.36111e-014 2.8625e-014
lhumerus 13.1727 -15.5932 60.6984
lradius 57.5485
lwrist 8.43763
lhand -7.20636 -27.8763
lfingers 7.12502
lthumb 18.6723 1.2475
rfemur -37.7601 -5.46953 33.0433
rtibia 19.7145
rfoot -13.0658 -8.52281
rtoes -8.5805
lfemur -54.3619 7.50295 0.912979
ltibia 45.2763
lfoot -16.2589 4.25136
ltoes -56.1468
203
root -0.287281 18.2856 3.73109 25.5313 6.30884 -15.3031
lowerback 40.2206 0.135408 -7.04935
upperback 12.3597 -2.6134 -1.84528
thorax -5.37105 -1.34231 2.64958
lowerneck 8.96537 -16.7374 -17.833
upperneck 24.3857 -25.0507 12.525
head 10.3572 -12.7148 4.91003
rclavicle 7.95139e-014 8.74653e-015
rhumerus 52.0599 31.933 -47.8064
rradius 47.1471
rwrist 25.616
rhand 1.00027 -26.7894
rfingers 7.12502
rthumb 26.5481 -54.9489
lclavicle 7.95139e-014 8.74653e-015
lhumerus 11.8558 -14.4968 61.3846
lradius 56.4676
lwrist 7.592
lhand -7.33867 -27.6623
lfingers 7.12502
lthumb 18.5451 1.47375
rfemur -37.4448 -5.68687 33.1868
rtibia 19.4956
rfoot -13.0518 -8.51097
rtoes -7.86282
lfemur -54.2056 7.3524 1.03057
ltibia 45.2112
lfoot -16.3253 4.23507
ltoes -56.1342
204
root -0.281416 18.2913 3.75331 25.3469 6.59877 -15.3805
lowerback 39.9454 0.240631 -7.14575
upperback 12.3119 -2.51584 -2.02143
thorax -5.34788 -1.28974 2.4748
lowerneck 8.59371 -16.633 -18.1494
upperneck 24.4375 -24.9026 12.5998
head 10.4705 -12.6451 4.96029
rclavicle 9.54166e-015 8.74653e-015
rhumerus 52.9343 32.3925 -46.8696
rradius 48.1161
rwrist 24.3613
rhand 0.747177 -26.1842
rfingers 7.12502
rthumb 26.3058 -54.3802
lclavicle 9.54166e-015 8.74653e-015
lhumerus 10.6396 -13.1699 61.8305
lradius 55.3269
lwrist 6.9363
lhand -7.28003 -27.178
lfingers 7.12502
lthumb 18.6015 1.95264
rfemur -37.0944 -5.95125 33.3179
rtibia 19.2739
rfoot -13.0107 -8.45689
rtoes -7.47524
lfemur -54.0129 7.14095 1.15701
ltibia 45.1458
lfoot -16.411 4.24405
ltoes -56.1286
205
root -0.276436 18.2971 3.7772 25.1904 6.89692 -15.4044
lowerback 39.6222 0.365816 -7.2982
upperback 12.2406 -2.40823 -2.17387
thorax -5.33086 -1.23348 2.35052
lowerneck 8.44086 -16.4893 -18.5542
upperneck 24.2928 -24.7693 12.9192
head 10.5225 -12.5922 5.12662
rclavicle 1.90833e-014 2.46493e-014
rhumerus 53.8551 32.7812 -45.7437
rradius 49.1054
rwrist 22.9488
rhand 1.28009 -23.7968
rfingers 7.12502
rthumb 26.8159 -51.9156
lclavicle 1.90833e-014 2.46493e-014
lhumerus 9.48516 -11.7542 62.1909
lradius 54.1347
lwrist 6.3842
lhand -6.9945 -26.5635
lfingers 7.12502
lthumb 18.8761 2.54063
rfemur -36.7817 -6.21108 33.3903
rtibia 19.0814
rfoot -12.9647 -8.45167
rtoes -7.62137
lfemur -53.8684 7.00344 1.18148
ltibia 45.086
lfoot -16.4234 4.18184
ltoes -56.197
206
root -0.275144 18.3027 3.80149 25.0358 7.1836 -15.4318
lowerback 39.3279 0.544286 -7.53716
upperback 12.1126 -2.2673 -2.26
thorax -5.37902 -1.16223 2.32994
lowerneck 8.39245 -16.3806 -19.0062
upperneck 24.1139 -24.6966 13.2531
head 10.564 -12.5759 5.30387
rclavicle -2.54444e-014 -5.80451e-014
rhumerus 54.8433 33.1281 -44.4145
rradius 50.054
rwrist 21.4241
rhand 0.148375 -26.8125
rfingers 7.12502
rthumb 25.7325 -55.0928
lclavicle -2.54444e-014 -5.80451e-014
lhumerus 8.37474 -10.2147 62.5273
lradius 52.7412
lwrist 5.60549
lhand -7.08963 -26.4175
lfingers 7.12502
lthumb 18.7846 2.69553
rfemur -36.4968 -6.39888 33.452
rtibia 18.957
rfoot -13.0196 -8.48904
rtoes -7.72472
lfemur -53.7426 6.99787 1.15569
ltibia 45.0314
lfoot -16.3837 3.97279
ltoes -56.3355
207
root -0.275037 18.3054 3.82608 24.8528 7.44307 -15.4635
lowerback 39.0555 0.751097 -7.82239
upperback 11.9619 -2.10701 -2.29545
thorax -5.4553 -1.08316 2.38026
lowerneck 8.28858 -16.3235 -19.4233
upperneck 24.0352 -24.6573 13.4333
head 10.6324 -12.5744 5.41209
rclavicle 4.13472e-014 -5.56597e-015
rhumerus 55.9385 33.4596 -42.8091
rradius 51.0031
rwrist 19.5851
rhand 0.0831054 -26.9091
rfingers 7.12502
rthumb 25.67 -55.1984
lclavicle 4.13472e-014 -5.56597e-015
lhumerus 7.31555 -8.49281 62.8683
lradius 51.2349
lwrist 4.73788
lhand -7.79638 -25.7959
lfingers 7.12502
lthumb 18.1048 3.38147
rfemur -36.2226 -6.60761 33.5219
rtibia 18.9151
rfoot -13.1242 -8.44237
rtoes -7.64808
lfemur -53.5734 6.97254 1.15345
ltibia 44.9748
lfoot -16.382 3.77746
ltoes -56.4241
208
root -0.271631 18.3083 3.84929 24.6288 7.59251 -15.3629
lowerback 38.8462 0.98056 -8.21972
upperback 11.7826 -1.97107 -2.37728
thorax -5.57618 -1.01271 2.4478
lowerneck 8.05305 -16.3157 -19.5683
upperneck 24.0654 -24.5903 13.2799
head 10.6706 -12.546 5.3645
rclavicle -1.27222e-014 2.3059e-014
rhumerus 57.0456 33.7699 -41.0042
rradius 52.0504
rwrist 17.3838
rhand 0.950094 -25.0762
rfingers 7.12502
rthumb 26.5001 -53.2431
lclavicle -1.27222e-014 2.3059e-014
lhumerus 6.36885 -6.72126 63.0706
lradius 49.4657
lwrist 4.05651
lhand -8.74137 -24.9001
lfingers 7.12502
lthumb 17.1954 4.3591
rfemur -35.8966 -6.86872 33.4281
rtibia 18.8608
rfoot -13.1512 -8.36272
rtoes -7.60706
lfemur -53.3133 6.7941 1.05218
ltibia 44.9374
lfoot -16.4552 3.74188
ltoes -56.4518
209
root -0.268034 18.3137 3.86709 24.3671 7.54477 -15.0609
lowerback 38.7269 1.27922 -8.87511
upperback 11.5463 -1.86441 -2.52617
thorax -5.77288 -0.952201 2.58564
lowerneck 7.77014 -16.3007 -19.499
upperneck 24.124 -24.4492 12.892
head 10.6472 -12.4756 5.21983
rclavicle 3.18055e-015 -1.59028e-014
rhumerus 58.0332 34.0884 -39.2593
rradius 53.1754
rwrist 15.1123
rhand 1.83658 -24.1599
rfingers 7.12502
rthumb 27.3483 -52.1959
lclavicle 3.18055e-015 -1.59028e-014
lhumerus 5.5372 -4.72619 63.1673
lradius 47.2607
lwrist 3.20456
lhand -9.10998 -25.5088
lfingers 7.12502
lthumb 16.8406 3.78099
rfemur -35.5546 -7.00904 33.0265
rtibia 18.8713
rfoot -13.1936 -8.35548
rtoes -7.91795
lfemur -52.9382 6.56346 0.724163
ltibia 44.9011
lfoot -16.5866 3.80924
ltoes -56.4936
210
root -0.269563 18.3136 3.90148 24.1186 8.11175 -15.3664
lowerback 38.3976 1.26064 -8.71608
upperback 11.3475 -1.7993 -2.47049
thorax -5.90044 -0.909484 2.54474
lowerneck 7.69482 -16.2468 -19.6123
upperneck 24.0207 -24.3311 12.746
head 10.5929 -12.4313 5.1974
rclavicle 1.59028e-014 -1.03368e-014
rhumerus 58.9751 34.3775 -37.4665
rradius 54.286
rwrist 13.2826
rhand 2.56714 -24.56
rfingers 7.12502
rthumb 28.0469 -52.4837
lclavicle 1.59028e-014 -1.03368e-014
lhumerus 4.63852 -2.53164 63.2176
lradius 45.2605
lwrist 1.80703
lhand -9.22849 -26.5451
lfingers 7.12502
lthumb 16.7265 2.75432
rfemur -35.2895 -7.50105 33.5633
rtibia 18.9235
rfoot -13.2735 -8.22105
rtoes -8.57725
lfemur -52.8089 6.46049 1.09964
ltibia 44.8925
lfoot -16.599 3.52829
ltoes -56.6026
